<?xml version="1.0" encoding="utf-8"?>
<!-- Generator: Adobe Illustrator 19.1.0, SVG Export Plug-In . SVG Version: 6.00 Build 0)  -->
<svg version="1.1" id="Layer_1" xmlns="http://www.w3.org/2000/svg" xmlns:xlink="http://www.w3.org/1999/xlink" x="0px" y="0px"
	 viewBox="159 144.9 718.2 112.1" style="enable-background:new 159 144.9 718.2 112.1;" xml:space="preserve">
<style type="text/css">
	.st0{enable-background:new    ;}
	.st1{fill:#FFFFFF;}
</style>
<g>
	<g class="st0">
		<path class="st1" d="M162.9,194.8c0-11.6,2.6-20.6,7.8-26.9c5.2-6.3,12.7-9.4,22.4-9.4c5.1,0,9.5,0.9,13.4,2.6
			c3.8,1.7,7,4.2,9.5,7.4c2.5,3.2,4.4,7,5.6,11.5c1.2,4.5,1.8,9.4,1.8,14.9c0,11.6-2.6,20.6-7.9,26.9c-5.3,6.3-12.7,9.4-22.4,9.4
			c-5.2,0-9.7-0.9-13.5-2.6c-3.8-1.7-6.9-4.2-9.4-7.4c-2.5-3.2-4.3-7-5.6-11.5C163.5,205.2,162.9,200.3,162.9,194.8z M177.6,194.8
			c0,3.5,0.3,6.8,0.9,9.7c0.6,3,1.5,5.5,2.8,7.6c1.3,2.1,2.9,3.8,4.8,5c2,1.2,4.3,1.8,7,1.8c5,0,8.8-1.9,11.5-5.7
			c2.7-3.8,4.1-9.9,4.1-18.5c0-3.4-0.3-6.6-0.9-9.5c-0.6-2.9-1.5-5.5-2.7-7.7c-1.2-2.2-2.8-3.9-4.8-5.1c-2-1.2-4.4-1.8-7.2-1.8
			c-5,0-8.8,1.9-11.5,5.8C178.9,180.4,177.6,186.5,177.6,194.8z"/>
		<path class="st1" d="M258.4,159.9h42.3V172h-28.3v17.3h26.1v12.2h-26.1v28.3h-14V159.9z"/>
		<path class="st1" d="M441.3,193.5l1.5-13.9h-0.6l-4.4,11.2l-15.2,26.1h-4.5l-16-26.2l-4.5-11.1h-0.5l2,13.8v36.3h-13.3v-69.9h12.7
			l19.1,31.9l3.4,8h0.4l3.1-8.2l18-31.7h12.6v69.9h-14V193.5z"/>
		<path class="st1" d="M492.5,159.9h42.3V172h-28.3v16.3h25.8v12.2h-25.8v17.1h28.8v12.2h-42.8V159.9z"/>
	</g>
	<g class="st0">
		<path class="st1" d="M575.7,160.6c1.6-0.3,3.2-0.5,5-0.7c1.8-0.2,3.6-0.4,5.4-0.5c1.8-0.1,3.6-0.2,5.2-0.3
			c1.7-0.1,3.3-0.1,4.7-0.1c3.3,0,6.6,0.3,9.8,0.9c3.2,0.6,6.1,1.6,8.7,3.1c2.5,1.5,4.6,3.5,6.1,6c1.5,2.6,2.3,5.8,2.3,9.6
			c0,5.7-1.4,10.4-4.1,14c-2.7,3.6-6.4,6.1-10.9,7.5l5,3.1l16.3,26.7h-16.1L597,202.4l-7.3-1.3v28.7h-14V160.6z M597.1,171
			c-1.4,0-2.8,0-4.2,0.1c-1.4,0.1-2.5,0.2-3.2,0.4v20.3h5.9c3.9,0,7-0.9,9.3-2.6c2.3-1.7,3.5-4.6,3.5-8.6c0-3-1-5.3-2.9-7
			C603.6,171.9,600.8,171,597.1,171z"/>
	</g>
	<g class="st0">
		<path class="st1" d="M708.1,226.9c-2.2,1.5-4.9,2.6-8.3,3.3c-3.4,0.7-6.8,1-10.3,1c-4.3,0-8.3-0.6-12.2-1.9
			c-3.8-1.3-7.2-3.4-10.1-6.3c-2.9-2.9-5.2-6.7-7-11.3c-1.7-4.6-2.6-10.2-2.6-16.8c0-6.9,1-12.6,2.9-17.2c1.9-4.6,4.5-8.4,7.5-11.2
			c3.1-2.8,6.5-4.9,10.3-6.1c3.8-1.2,7.6-1.8,11.4-1.8c4.1,0,7.5,0.3,10.3,0.8c2.8,0.5,5.1,1.2,7,1.9l-2.8,11.6
			c-1.6-0.7-3.4-1.3-5.6-1.6c-2.1-0.3-4.7-0.5-7.8-0.5c-5.6,0-10.2,2-13.6,5.9c-3.4,3.9-5.1,10-5.1,18.3c0,3.6,0.4,6.9,1.2,9.9
			c0.8,3,2.1,5.5,3.7,7.6c1.7,2.1,3.7,3.7,6.2,4.9c2.5,1.2,5.4,1.8,8.6,1.8c3.1,0,5.6-0.3,7.7-0.9c2.1-0.6,3.9-1.4,5.5-2.3
			L708.1,226.9z"/>
		<path class="st1" d="M741.7,159.9H784V172h-28.3v16.3h25.8v12.2h-25.8v17.1h28.8v12.2h-42.8V159.9z"/>
	</g>
	<g class="st0">
		<path class="st1" d="M821.9,160.6c1.6-0.3,3.2-0.5,5-0.7c1.8-0.2,3.6-0.4,5.4-0.5c1.8-0.1,3.6-0.2,5.2-0.3
			c1.7-0.1,3.3-0.1,4.7-0.1c3.3,0,6.6,0.3,9.8,0.9c3.2,0.6,6.1,1.6,8.7,3.1c2.5,1.5,4.6,3.5,6.1,6c1.5,2.6,2.3,5.8,2.3,9.6
			c0,5.7-1.4,10.4-4.1,14c-2.7,3.6-6.4,6.1-10.9,7.5l5,3.1l16.3,26.7h-16.1l-16.2-27.4l-7.3-1.3v28.7h-14V160.6z M843.3,171
			c-1.4,0-2.8,0-4.2,0.1c-1.4,0.1-2.5,0.2-3.2,0.4v20.3h5.9c3.9,0,7-0.9,9.3-2.6c2.3-1.7,3.5-4.6,3.5-8.6c0-3-1-5.3-2.9-7
			C849.8,171.9,847,171,843.3,171z"/>
	</g>
	<g>
		<rect x="343.8" y="150.5" class="st1" width="3.2" height="88.7"/>
	</g>
</g>
</svg>
